<?xml version="1.0" encoding="UTF-8" standalone="no"?>

<svg
   width="264.42459mm"
   height="105.33063mm"
   viewBox="0 0 264.42459 105.33063"
   version="1.1"
   id="svg5"
   xmlns="http://www.w3.org/2000/svg"
   xmlns:svg="http://www.w3.org/2000/svg">
   <defs
      id="defs2" />
   <g
      id="layer1"
      transform="translate(6.8393392,-68.447393)">
      <g
         id="g871"
         transform="matrix(0.26458333,0,0,0.26458333,-6.8393392,68.447393)">
         <linearGradient
            id="SVGID_1_"
            gradientUnits="userSpaceOnUse"
            x1="0"
            y1="199.03439"
            x2="999.40997"
            y2="199.03439">
            <stop
               offset="0"
               style="stop-color:#3BFF9D"
               id="stop826" />

            <stop
               offset="1"
               style="stop-color:#3BFFC8"
               id="stop828" />

         </linearGradient>

         <path
            class="st1"
            d="M 922,398.1 H 77.4 C 34.7,398.1 0,363.4 0,320.6 V 77.4 C 0,34.7 34.7,0 77.4,0 H 922 c 42.8,0 77.4,34.7 77.4,77.4 v 243.2 c 0,42.8 -34.7,77.5 -77.4,77.5 z"
            id="path831"
            style="fill:url(#SVGID_1_)" />

         <g
            id="g869">
            <g
               id="g835">
               <polygon
                  class="st0"
                  points="906.6,126.3 864.9,126.3 811.5,330.4 811.3,330.8 853,330.8 "
                  id="polygon833" />

            </g>

            <g
               id="g839">
               <path
                  class="st0"
                  d="m 203.5,242.4 c -5.5,2.9 -13,4.6 -20.1,4.6 -15,0 -23.5,-2.4 -24.4,-14.5 v 0 -0.8 c 0,-0.5 -0.1,-1 -0.1,-1.5 V 195 l 0.1,-4.2 v -24.9 h -0.1 v -10.6 l 0.1,-4.2 v -24 l -37.2,4.9 c 25.2,-4.9 39.6,-24.8 39.6,-44.6 V 75.2 h -41.8 v 57.1 l -2.4,0.7 v 105.8 c 1.4,29.7 21,47.4 53.1,47.4 11.4,0 23.9,-2.6 33.5,-6.9 l 0.2,-0.1 v -37.1 z"
                  id="path837" />

            </g>

            <g
               id="g843">
               <polygon
                  class="st0"
                  points="210.1,118.6 92.8,136.7 92.8,166.4 210.1,148.3 "
                  id="polygon841" />

            </g>

            <g
               id="g847">
               <polygon
                  class="st0"
                  points="210.1,162.1 92.8,180.2 92.8,208.6 210.1,190.5 "
                  id="polygon845" />

            </g>

            <g
               id="g853">
               <g
                  id="g851">
                  <path
                     class="st0"
                     d="m 341.6,175.8 c -1.7,-33 -22.3,-52.6 -55.9,-52.6 -19.3,0 -35.3,7.5 -46.1,21.6 -10.8,14.1 -16.5,34.8 -16.5,59.9 0,25.1 5.7,45.9 16.5,59.9 10.8,14.1 26.8,21.6 46.1,21.6 33.6,0 54.3,-19.7 55.9,-52.9 v 49.8 h 41.8 V 126.6 l -41.8,6.4 m 2.2,71.7 c 0,29.3 -15.4,48.2 -39.1,48.2 -24.5,0 -39.1,-18 -39.1,-48.2 0,-30.3 14.6,-48.5 39.1,-48.5 11.9,0 21.9,4.6 28.8,13.4 6.7,8.7 10.3,20.8 10.3,35.1 z"
                     id="path849" />

               </g>

            </g>

            <g
               id="g863">
               <g
                  id="g857">
                  <path
                     class="st0"
                     d="m 505.3,123.2 c -33.7,0 -54.3,19.6 -55.9,52.7 V 81.1 l -41.8,6.4 v 195.6 h 41.8 v -49.8 c 1.6,33.2 22.3,52.9 55.9,52.9 39.4,0 62.9,-30.5 62.9,-81.5 0,-51 -23.5,-81.5 -62.9,-81.5 z m -19,129.7 c -23.8,0 -39.1,-18.9 -39.1,-48.2 0,-14.3 3.6,-26.4 10.3,-35 6.9,-8.8 16.9,-13.4 28.8,-13.4 24.5,0 39.1,18.1 39.1,48.5 0,30.1 -14.6,48.1 -39.1,48.1 z"
                     id="path855" />

               </g>

               <g
                  id="g861">
                  <path
                     class="st0"
                     d="m 681.9,123.2 c -33.7,0 -54.3,19.6 -55.9,52.7 V 81.1 l -41.8,6.4 V 283.1 H 626 v -49.8 c 1.6,33.2 22.3,52.9 55.9,52.9 39.4,0 62.9,-30.5 62.9,-81.5 0,-51 -23.5,-81.5 -62.9,-81.5 z M 663,252.9 c -23.8,0 -39.1,-18.9 -39.1,-48.2 0,-14.3 3.6,-26.4 10.3,-35 6.9,-8.8 16.9,-13.4 28.8,-13.4 24.5,0 39.1,18.1 39.1,48.5 0,30.1 -14.6,48.1 -39.1,48.1 z"
                     id="path859" />

               </g>

            </g>

            <g
               id="g867">
               <polygon
                  class="st0"
                  points="744.9,126.3 789.5,126.3 825.8,282.9 785.8,282.9 "
                  id="polygon865" />

            </g>

         </g>

      </g>
   </g>
   <style
      type="text/css"
      id="style824">
      .st0{fill:#292929;}
      .st1{fill:url(#SVGID_1_);}
      .st2{fill:url(#SVGID_00000135652784278491322280000009671452152791786924_);}
      .st3{fill:url(#SVGID_00000054263264153745633060000007268712438003610815_);}
      .st4{fill:url(#SVGID_00000041975445599940842400000013944219178383732898_);}
      .st5{fill:url(#SVGID_00000116943842813529704400000000494501423068326845_);}
      .st6{fill:url(#SVGID_00000124869307616683954630000002275429652556072867_);}
      .st7{fill:url(#SVGID_00000070118923401552558150000009959902543561835709_);}
      .st8{fill:url(#SVGID_00000079464739209269678710000016246927527495940488_);}
      .st9{fill:url(#SVGID_00000056405354166778854060000002731202216749279142_);}
      .st10{fill:#FFFFFF;}
      .st11{fill:url(#SVGID_00000044157129361555596800000014548697214166243457_);}
      .st12{fill:url(#SVGID_00000155131904409101040970000009728230278046062749_);}
      .st13{fill:url(#SVGID_00000118392958329356702520000009849154598440280736_);}
      .st14{fill:url(#SVGID_00000070827806203239558910000004531876109858170035_);}
      .st15{fill:url(#SVGID_00000062192721991707302660000000109353552095616692_);}
      .st16{fill:url(#SVGID_00000078025790301751252610000004150264707051361677_);}
      .st17{fill:url(#SVGID_00000169516539135076766910000006512023216833357246_);}
      .st18{fill:url(#SVGID_00000000939457239280373280000015373974759371444876_);}
      .st19{fill:url(#SVGID_00000056409318197951190640000003596387073734176658_);}
      .st20{fill:url(#SVGID_00000018942783536400159570000013112339876105154731_);}
      .st21{fill:url(#SVGID_00000032643452538376986270000013280023532661439903_);}
      .st22{fill:url(#SVGID_00000009553785420136385860000013439353164396857510_);}
      .st23{fill:url(#SVGID_00000091004818174017931980000009486740826129310618_);}
      .st24{fill:url(#SVGID_00000003101311605279361610000006356758607605030563_);}
      .st25{fill:none;stroke:#292929;stroke-width:6;stroke-miterlimit:10;}
</style>
</svg>